<?xml version="1.0" encoding="utf-8"?>
<!-- Generator: Adobe Illustrator 21.0.0, SVG Export Plug-In . SVG Version: 6.00 Build 0)  -->
<svg version="1.1" id="Layer_1" xmlns="http://www.w3.org/2000/svg" xmlns:xlink="http://www.w3.org/1999/xlink" x="0px" y="0px"
	 viewBox="0 0 512 512" style="enable-background:new 0 0 512 512;" xml:space="preserve">
<g>
	<path d="M492.5,63.2c-0.6-2-1.4-3.8-2.3-5.4c-1.5-2.8-3.4-5-5.2-6.8c-2.7-2.7-5.5-4.7-8.3-6.4c-2.7-1.6-5.4-2.9-8-3.9l-0.1,0.1
		c-30.8-12.2-64.9-22.4-100.8-29.5C331.8,4.2,294,0,256,0c-37.9,0-75.4,3.8-111.3,10.7c-35.9,6.9-70.3,17-101.8,29.6h-0.1h-0.1
		c-1.6,0.6-3.5,1.5-5.7,2.6c-1.6,0.9-3.4,1.9-5.2,3.2c-1.4,1-2.8,2.1-4.3,3.5c-2.1,2-4.4,4.6-6.2,8.1c-0.9,1.7-1.7,3.7-2.2,5.8
		c-0.6,2.1-0.9,4.4-0.9,6.7c0,2.9,0.5,5.8,1.4,8.5l0.2,0.6L31.4,108l0.3,0.6c0.9,1.8,1.9,3.5,3,5.2c1,1.5,2.1,2.9,3.3,4.2
		c2.1,2.4,4.7,4.5,7.5,6c2.1,1.2,4.2,2.1,6.2,2.6c1.4,0.4,2.6,0.7,3.9,0.9c0.7,2.3,1.6,4.5,2.5,6.6c0,0,0.1,0.2,0.2,0.4
		c0.4,0.9,1.4,2.9,2.6,5.6c4.8,10.4,14.8,32.3,27.7,60.6C108,243.1,134,299.9,159,354c12.5,27.1,24.7,53.5,35.7,77.1
		c11,23.6,20.9,44.4,28.6,60.4c3.1,6.5,8,11.7,13.7,15.2c5.7,3.5,12.4,5.4,19.2,5.4c5.3,0,10.8-1.2,15.8-3.6c7.4-3.6,13.5-9.6,17-17
		l0.1-0.1l164.7-356.9c0.9-2.1,1.7-4.3,2.3-6.6c1.3-0.1,2.7-0.3,4.1-0.7c2.3-0.6,4.7-1.6,7-2.9c1.7-1,3.3-2.2,4.6-3.5
		c2.1-1.9,3.7-4.1,5.1-6.2c1.4-2.2,2.5-4.4,3.6-6.7l0.1-0.3l11.5-28.4l0.2-0.5c0.9-2.6,1.4-5.4,1.3-8.2
		C493.6,67.9,493.2,65.4,492.5,63.2z M151.6,46.5c33.7-6.5,69-10,104.4-10c35.3,0,70.8,3.9,104.7,10.6c33.5,6.6,65.5,16.2,94,27.4
		l-6.8,16.8c0,0,0,0,0,0c-0.7-0.3-1.6-0.6-2.6-1l0-0.1c-21-8.5-44.2-15.7-68.8-21.4c-9.6-2.4-19.3-4.5-29.1-6.2
		c-15.4-2.8-31.1-4.7-47-6c-14.7-1.3-29.5-2-44.3-2c-15.1,0.1-30.3,0.8-45.3,2.2c-16.2,1.3-32.1,3.3-47.6,6
		c-22.8,4-44.7,9.6-65.2,16.7C87.5,82.8,77.2,86.4,67,90.4c-1.2,0.5-2.2,0.9-2.9,1.1l-7.1-17.6C86.1,62.3,118.1,53,151.6,46.5z
		 M256.1,475c-11-22.7-26.4-55.6-43.5-92.5c-25.8-55.5-55.2-119.8-78.7-171.1c-11.7-25.6-22-48.1-29.5-64.5
		c-3.8-8.2-6.9-15-9.1-19.9c-1.1-2.5-2.1-4.5-2.8-6c-0.1-0.1-0.1-0.3-0.2-0.4c0.2-0.1,0.4-0.2,0.6-0.3c5.7-2.4,11.6-4.6,17.7-6.7
		c46.9-14.7,95.8-22.3,145.1-22.4c0.1,0,0.2,0,0.3,0c31.1,0,62.9,3.3,92.9,9.1c11.5,2.2,22.7,4.8,33.5,7.7
		c12.4,3.6,24.7,7.9,36.7,12.8l-0.1,0.2c0.1,0,0.2,0.1,0.2,0.1L256.1,475z"/>
	<circle cx="182.9" cy="182.8" r="36.6"/>
	<circle cx="329.1" cy="201.1" r="36.6"/>
	<circle cx="256" cy="329.1" r="36.6"/>
</g>
</svg>
